# xmcd
#
# Track frame offsets: 
#        151
#        30290
#        62605
#        94931
#        122897
#        159221
#        194160
#        223869
#        255835
#        282971
#
# Disc length: 4174 seconds
#
# Revision: 0
# Processed by: cddbd v1.5.2PL0 Copyright (c) Steve Scherf et al.
# Submitted via: ExactAudioCopy v0.99pb4
#
DISCID=89104c0a
DTITLE=老虎合唱團 - 粵唱粵經典
DYEAR=2007
DGENRE=Blues
TTITLE0=舊夢不須記、衹需問我
TTITLE1=人生何處不相逢、上海灘往事、不裝飾你的夢
TTITLE2=人生嘉年華會裡、將心念親恩
TTITLE3=讓夕陽醉了的情義兩心堅
TTITLE4=看似水流年、問誰不懷念
TTITLE5=默默向上游時、似是故人來
TTITLE6=愛在深秋裡、留下的市足印
TTITLE7=浪子心聲是一顆不變心
TTITLE8=忘記他之後、萬水千山總是情
TTITLE9=當想起你的倩影、像千枝針刺在心
EXTD=
EXTT0=
EXTT1=
EXTT2=
EXTT3=
EXTT4=
EXTT5=
EXTT6=
EXTT7=
EXTT8=
EXTT9=
PLAYORDER=
